# xmcd CD database file
#
# Track frame offsets:
#	150
#	22619
#	42839
#	60213
#	83169
#	103269
#	120709
#	137078
#	158848
#	178728
#
# Disc length: 2662 seconds
#
# Revision: 1
# Processed by: cddbd v1.5.1PL0 Copyright (c) Steve Scherf et al.
# Submitted via: CDex 1.51
#
DISCID=750a640a
DTITLE=ITA PURNAMASARI - Cintamu
DYEAR=2002
DGENRE=Blues
TTITLE0=Berikan Cintamu
TTITLE1=Cintamu
TTITLE2=Semakin Sayang Semakin Cinta
TTITLE3=Bukan Lagi Milik Kita
TTITLE4=Bayangmu
TTITLE5=Tiada Yang Melebihi
TTITLE6=Berhenti Mencari
TTITLE7=Bersamamu
TTITLE8=Sayang
TTITLE9=Terima Kasih Sayang
EXTD=YEAR: 2002
EXTT0=
EXTT1=
EXTT2=
EXTT3=
EXTT4=
EXTT5=
EXTT6=
EXTT7=
EXTT8=
EXTT9=
PLAYORDER=
